{"glyphs":{":":{"x_min":0,"x_max":226,"ha":226,"o":"m 128 228 q 128 257 166 257 q 181 257 194 247 q 208 237 208 224 q 208 212 196 202 q 183 193 168 193 q 153 193 140 204 q 128 214 128 228 z m 88 34 q 88 63 126 63 q 141 63 154 53 q 168 43 168 30 q 168 18 156 8 q 143 -1 128 -1 q 113 -1 100 10 q 88 20 88 34 z"},"$":{"x_min":0,"x_max":537,"ha":537,"o":"m 184 220 q 249 220 310 244 q 370 269 399 317 q 410 336 410 349 q 410 371 381 384 q 352 396 288 408 q 204 296 153 221 q 163 220 184 220 z m 223 494 q 223 465 275 449 q 321 510 385 593 q 299 585 253 544 q 223 516 223 494 z m 143 208 q 58 80 58 42 q 58 25 69 20 q 73 17 66 10 q 60 3 50 3 q 35 3 35 32 q 35 62 54 115 q 64 141 109 213 q 32 232 13 292 q 7 306 7 322 q 7 338 17 356 q 35 387 63 387 q 69 387 69 385 q 69 381 57 374 l 40 362 q 29 351 29 331 q 29 294 56 266 q 83 237 118 227 q 175 313 251 416 q 184 434 184 483 q 184 519 229 555 q 298 609 401 613 q 498 734 509 734 q 520 734 526 728 q 531 723 531 716 q 531 710 523 700 q 490 662 448 610 q 531 598 531 545 q 531 508 492 493 q 469 484 454 484 q 438 484 438 492 q 438 496 452 497 q 504 500 504 536 q 504 583 433 592 q 380 527 313 440 q 344 436 406 419 q 454 400 454 364 q 454 328 421 292 q 388 256 353 240 q 279 206 185 206 q 169 206 143 208 z"},"?":{"x_min":0,"x_max":401,"ha":401,"o":"m 166 129 q 157 113 150 113 q 144 113 144 122 q 144 130 146 136 q 172 189 234 229 q 324 287 344 304 q 387 343 387 375 q 387 407 350 427 q 314 447 258 447 q 203 447 158 421 q 112 395 106 345 q 104 332 116 320 q 129 309 152 309 q 176 309 205 339 q 208 342 211 342 q 214 342 214 336 q 214 329 209 324 q 178 290 138 290 q 113 290 98 306 q 82 321 82 342 q 82 344 82 347 q 88 414 148 451 q 207 488 270 488 q 436 488 436 393 q 436 332 382 290 q 370 281 262 218 q 192 178 166 129 z m 87 30 q 87 58 125 58 q 140 58 154 48 q 167 39 167 26 q 167 14 154 4 q 141 -5 126 -5 q 111 -5 99 6 q 87 16 87 30 z"},"<":{"x_min":0,"x_max":318,"ha":318,"o":"m 85 256 q 85 270 137 341 l 203 431 q 211 442 220 442 q 229 442 229 436 q 229 421 130 283 q 227 159 227 148 q 227 136 217 136 l 209 140 q 175 188 88 250 q 85 252 85 256 z"},"'":{"x_min":0,"x_max":130,"ha":130,"o":"m 79 269 q 73 269 73 273 q 73 277 100 312 q 127 346 127 361 q 127 376 114 388 q 100 400 100 406 q 100 436 129 436 q 144 436 158 426 q 171 417 171 403 q 171 360 133 314 q 95 269 79 269 z"},"=":{"x_min":0,"x_max":406,"ha":406,"o":"m 195 381 l 326 380 q 389 380 429 382 q 430 381 430 379 q 430 365 351 351 l 240 333 q 233 331 210 331 q 187 331 120 336 q 52 340 52 355 q 52 366 60 372 q 69 379 76 379 l 90 379 q 144 381 195 381 z m 210 260 l 314 259 q 371 259 396 262 q 397 260 397 258 q 397 255 390 250 q 373 240 324 232 q 276 224 236 218 q 197 211 174 211 q 150 211 107 214 q 19 220 19 235 q 19 245 28 252 q 36 259 43 259 l 58 259 l 83 260 l 163 260 q 188 260 210 260 z"},"a":{"x_min":0,"x_max":412,"ha":412,"o":"m 333 299 l 347 302 q 358 302 368 293 q 378 284 378 279 q 378 274 316 182 q 254 91 254 55 q 254 52 255 49 q 260 26 277 26 q 329 26 467 198 q 470 202 474 202 q 478 202 478 194 q 478 187 469 175 q 341 4 274 4 q 265 4 257 7 q 213 24 213 73 q 213 90 217 107 l 155 47 q 96 -5 70 -5 q 43 -5 19 12 q -8 32 -8 65 q -8 138 94 240 q 196 341 281 341 q 314 341 325 318 q 328 310 330 304 q 332 299 333 299 z m 34 53 q 34 17 59 17 q 117 17 217 144 l 323 290 q 315 304 297 304 q 236 304 135 210 q 34 115 34 53 z"},"L":{"x_min":0,"x_max":658,"ha":658,"o":"m 859 592 q 859 513 782 406 q 722 322 622 271 q 523 220 439 220 q 408 220 387 227 q 345 173 252 58 q 287 8 378 -36 q 470 -80 536 -80 q 602 -80 634 -62 q 678 -39 678 4 q 678 15 676 25 q 674 35 682 35 q 691 35 698 20 q 704 6 704 -5 q 704 -40 667 -71 q 620 -109 539 -109 q 458 -109 371 -71 q 284 -33 228 32 q 148 -48 76 -48 q 54 -48 38 -40 q 3 -20 3 36 q 3 92 50 174 q 96 256 123 261 q 141 261 164 220 l 227 98 q 280 168 338 251 q 256 288 256 358 q 256 416 303 452 q 329 471 358 471 q 388 471 403 440 q 406 434 404 432 q 401 431 400 432 q 380 452 357 452 q 356 452 355 452 q 326 452 304 421 q 283 390 283 364 q 283 361 283 358 q 283 306 355 269 q 367 286 394 326 q 420 365 435 387 q 634 679 766 679 q 859 679 859 592 z m 770 662 q 720 662 646 578 q 595 519 526 420 q 458 320 403 249 q 416 246 432 246 q 502 246 592 294 q 682 342 734 415 q 825 542 825 608 q 825 648 790 659 q 781 662 770 662 z m 202 65 q 178 98 152 150 q 126 201 118 211 q 109 221 106 221 q 103 221 102 221 q 84 218 63 157 q 42 96 42 38 q 42 -21 78 -21 q 104 -21 140 6 q 177 33 202 65 z"},"3":{"x_min":0,"x_max":718,"ha":718,"o":"m 652 612 q 746 612 746 528 q 746 525 746 521 q 741 434 567 380 q 718 364 718 274 q 718 259 714 246 q 684 128 537 54 q 408 -10 255 -10 q 157 -10 94 21 q 32 52 32 110 q 32 141 54 181 q 76 221 144 250 q 213 279 259 279 q 271 279 271 271 q 271 261 257 261 q 224 261 172 228 q 119 196 109 161 q 104 141 104 127 q 104 40 223 19 q 254 13 286 13 q 373 13 464 55 q 604 120 653 242 q 660 259 660 276 q 660 316 618 334 q 576 352 518 352 q 460 352 421 337 q 412 333 402 333 q 384 333 384 350 q 384 362 392 371 q 401 380 413 380 q 499 380 574 409 q 670 447 682 516 q 683 521 683 529 q 683 572 630 572 q 576 572 508 546 q 440 521 393 491 q 388 488 386 488 q 379 488 379 501 q 379 531 398 535 q 421 542 471 589 q 477 595 482 593 q 487 591 487 586 q 487 580 482 576 q 478 572 473 566 q 580 612 652 612 z"},";":{"x_min":0,"x_max":226,"ha":226,"o":"m 128 228 q 128 257 166 257 q 181 257 194 247 q 208 237 208 224 q 208 212 196 202 q 183 193 168 193 q 153 193 140 204 q 128 214 128 228 z m 168 29 q 168 -13 136 -46 q 104 -80 92 -80 q 81 -80 81 -78 q 81 -76 102 -52 q 124 -27 124 -12 q 124 3 110 15 q 97 27 97 33 q 97 63 126 63 q 141 63 154 53 q 168 43 168 29 z"},"J":{"x_min":0,"x_max":822,"ha":822,"o":"m 684 477 q 684 469 664 469 q 643 469 622 490 q 602 510 602 540 q 602 569 620 593 q 658 645 747 667 q 811 683 875 683 l 883 683 q 892 683 932 680 q 930 693 942 704 q 955 716 971 716 q 1001 716 1000 673 q 1108 654 1114 615 q 1115 606 1115 600 q 1115 580 1104 580 q 1092 580 1096 604 q 1071 641 997 656 q 979 575 809 304 q 696 126 546 6 q 374 -130 222 -130 q 129 -130 84 -83 q 39 -36 39 22 q 39 79 61 120 q 114 222 214 279 q 288 322 351 322 q 419 322 458 289 q 496 256 496 206 q 496 152 456 108 q 431 80 416 80 q 412 80 412 84 q 412 87 415 93 q 451 146 451 192 q 451 237 426 266 q 397 297 348 297 q 298 297 237 257 q 162 208 114 110 q 89 61 89 8 q 89 -44 128 -76 q 167 -109 233 -109 q 487 -109 764 337 q 930 603 934 663 q 874 666 871 666 q 824 666 750 640 q 677 614 655 576 q 646 561 646 543 q 646 525 665 503 q 684 481 684 477 z"},"V":{"x_min":0,"x_max":690,"ha":690,"o":"m 290 286 q 304 286 304 253 q 304 203 254 160 q 205 116 141 116 q 100 116 62 136 q -19 180 -19 289 q -19 366 23 440 q 81 541 190 600 q 298 659 401 659 q 476 659 524 626 q 578 589 578 516 q 578 423 488 224 q 398 26 398 0 q 398 -8 403 -5 q 429 12 642 266 q 854 521 937 581 q 1011 636 1060 664 q 1110 691 1162 691 q 1176 691 1183 690 q 1210 688 1210 662 q 1210 649 1201 649 q 1200 649 1187 654 q 1174 658 1165 658 q 1025 658 788 405 q 699 310 572 149 q 444 -12 421 -25 q 340 -71 330 -71 q 327 -71 327 -61 q 327 -28 383 107 q 406 159 450 263 l 496 398 q 520 466 520 497 q 520 566 480 602 q 440 638 365 638 q 290 638 204 585 q 111 525 65 437 q 19 349 19 288 q 19 227 44 192 q 85 135 153 135 q 205 135 245 170 q 285 204 285 257 q 285 268 282 277 q 280 286 290 286 z"},"\"":{"x_min":0,"x_max":206,"ha":206,"o":"m 206 438 q 206 396 174 362 q 142 329 130 329 q 119 329 119 332 q 119 334 140 358 q 162 383 162 398 q 162 412 148 424 q 135 436 135 442 q 135 472 165 472 q 180 472 193 462 q 206 452 206 438 z m 105 438 q 105 396 72 362 q 40 329 25 329 q 17 329 17 332 q 21 337 28 344 q 34 351 40 358 q 61 381 61 396 q 61 412 48 424 q 34 436 34 442 q 34 472 63 472 q 78 472 92 462 q 105 452 105 438 z"},"7":{"x_min":0,"x_max":494,"ha":494,"o":"m 149 14 q 149 7 151 -3 q 152 -15 139 -15 q 123 -15 122 3 q 121 8 121 20 q 121 126 256 278 q 390 430 578 578 q 418 600 349 600 q 280 600 237 582 q 180 557 158 491 q 150 471 134 471 q 119 471 114 478 q 108 484 108 489 q 108 498 112 511 l 130 547 q 140 568 140 583 q 140 614 150 612 q 158 606 158 581 q 228 644 346 644 q 397 644 480 624 q 562 605 605 599 l 656 637 q 659 639 666 639 q 672 639 685 626 q 698 612 698 606 q 698 599 693 596 q 453 422 288 259 q 239 210 194 138 q 149 65 149 14 z"},"S":{"x_min":0,"x_max":748,"ha":748,"o":"m 791 428 q 754 413 728 413 q 701 413 701 424 q 701 431 730 432 q 760 433 773 439 q 811 459 811 498 q 811 518 800 540 q 768 597 645 597 q 574 597 503 576 q 432 554 384 510 q 336 465 336 427 q 336 369 451 342 l 569 320 q 640 307 675 284 q 721 256 721 204 q 721 183 714 159 q 682 51 549 -6 q 438 -55 287 -55 q 244 -55 212 -51 q 244 -69 296 -82 q 300 -83 300 -86 q 300 -95 279 -95 q 238 -95 177 -46 q 94 -33 53 0 q 27 21 5 62 q -17 103 -17 136 q -17 169 -4 191 q 26 244 72 244 q 107 244 113 185 q 127 71 132 55 q 147 6 183 -28 q 225 -37 274 -37 q 382 -37 486 6 q 590 49 636 128 q 655 159 655 183 q 655 230 572 256 l 396 296 q 342 309 310 339 q 277 369 277 408 q 277 468 352 528 q 409 574 492 600 q 574 625 654 625 q 733 625 785 602 q 852 571 852 512 q 852 452 791 428 z m 147 -18 q 89 46 73 157 q 64 220 56 220 q 48 220 41 216 q 34 211 27 196 q 20 181 20 157 q 20 80 74 25 q 101 -3 147 -18 z"},"}":{"x_min":0,"x_max":425,"ha":425,"o":"m 27 -120 l 26 -120 q 20 -120 15 -111 q 26 -106 66 -102 q 134 -98 162 -30 l 201 92 q 226 171 259 201 q 299 240 357 257 q 284 275 284 336 q 284 378 309 452 q 334 526 334 565 q 334 604 307 613 l 248 622 l 240 629 l 254 637 q 306 637 332 628 q 376 613 376 568 q 376 524 348 447 q 321 370 321 333 q 321 296 351 279 q 376 267 421 263 l 408 246 q 321 244 283 193 q 261 162 235 66 q 213 -23 181 -61 q 131 -120 27 -120 z"},"Z":{"x_min":0,"x_max":739,"ha":739,"o":"m 909 533 q 904 533 802 549 q 633 453 414 303 q 196 153 61 26 q 214 43 372 57 q 390 58 424 58 q 549 58 621 34 q 693 10 693 -30 q 693 -54 664 -83 q 626 -118 612 -118 q 607 -118 607 -110 q 607 -101 618 -90 q 630 -80 630 -71 q 630 -40 537 -14 q 440 14 355 14 q 270 14 158 -2 q 45 -19 -20 -19 q -24 -19 -27 -19 q -43 -33 -47 -33 q -49 -33 -49 -30 q -49 -26 -43 -16 q -80 -14 -80 5 q -80 20 -64 36 q -48 52 -36 52 q -34 52 -32 50 q -27 42 11 36 q 264 300 736 559 l 706 565 q 635 581 523 581 q 411 581 328 551 q 310 547 274 529 q 216 500 216 460 q 216 454 218 446 q 221 437 218 432 q 214 426 204 426 q 195 426 186 440 q 178 454 178 470 q 178 486 183 503 q 202 567 306 597 q 359 612 484 612 q 608 612 730 590 q 745 589 780 581 l 835 611 q 843 615 870 615 q 897 615 897 605 q 897 601 888 598 q 884 595 837 569 q 882 566 892 566 q 903 566 912 571 q 920 576 918 586 q 915 596 919 596 q 925 596 934 582 q 942 569 942 558 q 942 533 909 533 z"},"x":{"x_min":0,"x_max":427,"ha":427,"o":"m 362 44 q 290 -16 242 -16 q 195 -16 180 53 q 175 81 173 137 q 51 7 -10 -98 q -13 -102 -18 -102 q -30 -102 -30 -91 q -30 -88 -28 -86 q 65 61 173 172 q 177 309 178 326 q 155 321 80 210 q 43 154 15 124 q -13 94 -18 90 q -24 85 -30 85 q -35 85 -35 90 q -35 95 -3 130 q 29 166 82 246 q 135 327 158 348 q 181 369 201 369 q 221 369 230 364 q 239 358 236 344 q 234 331 232 321 q 231 311 230 298 q 224 251 223 221 q 272 268 444 414 q 446 416 451 416 q 456 416 464 408 q 472 399 472 390 q 472 382 464 374 q 432 348 352 290 q 273 233 221 185 q 220 164 220 128 q 220 92 229 62 q 241 23 273 23 q 330 23 449 160 q 459 170 464 170 q 469 170 469 164 q 469 157 461 148 q 399 75 362 44 z"},")":{"x_min":0,"x_max":651,"ha":651,"o":"m 30 -35 q 9 -32 9 -22 q 9 -13 34 -12 q 209 5 358 134 q 469 230 531 348 q 593 465 593 551 q 593 722 443 734 q 421 735 421 745 q 421 759 444 759 q 448 759 453 759 q 533 751 591 686 q 649 622 649 520 q 649 440 608 349 q 549 220 391 107 q 215 -20 30 -35 z"},"&":{"x_min":0,"x_max":753,"ha":753,"o":"m 390 445 q 446 445 446 422 q 446 416 442 412 q 429 390 386 390 q 342 390 307 416 q 253 400 181 348 q 69 265 69 185 q 69 96 190 86 q 214 234 334 308 q 373 333 418 344 q 463 354 480 358 q 496 361 536 368 q 575 374 581 375 q 674 391 700 411 q 727 431 727 449 q 727 454 726 460 q 724 466 728 467 q 732 468 737 464 q 745 453 745 437 q 745 421 725 398 q 695 368 642 356 q 622 351 588 344 q 555 338 540 334 q 559 316 559 280 q 559 206 471 135 q 374 57 211 57 q 210 49 210 32 q 210 -38 256 -78 q 303 -119 374 -119 q 399 -119 417 -102 q 435 -86 435 -65 q 435 -58 431 -49 q 427 -40 438 -40 q 450 -40 450 -66 q 450 -93 427 -114 q 404 -134 374 -134 q 296 -134 244 -91 q 185 -44 185 32 q 185 49 186 58 q 99 66 54 102 q 13 137 13 179 q 13 276 161 364 q 230 406 296 427 q 268 458 268 508 q 268 534 280 551 q 313 598 380 626 q 459 661 540 661 q 647 661 645 594 q 643 565 620 544 q 598 522 571 522 q 544 522 544 536 q 544 546 557 546 l 574 543 q 588 543 602 560 q 615 577 615 594 q 615 621 584 633 q 564 640 546 640 q 462 640 406 605 q 350 570 324 527 q 309 502 309 475 q 309 448 321 434 q 360 445 390 445 z m 526 287 q 526 331 488 331 q 476 331 439 322 q 246 250 214 85 q 236 85 258 88 q 387 102 463 170 q 526 227 526 287 z m 416 419 q 416 428 390 428 q 363 428 333 422 q 358 406 387 406 q 416 406 416 419 z"},"_":{"x_min":0,"x_max":806,"ha":806,"o":"m 786 -60 q 445 -60 25 -73 q 8 -73 8 -49 q 8 -25 25 -25 l 765 -25 q 790 -25 793 -53 z"},"v":{"x_min":0,"x_max":301,"ha":301,"o":"m 272 393 q 302 393 323 373 q 344 353 344 317 q 344 238 213 119 q 102 19 34 -3 q 23 -3 5 9 q -13 21 -13 31 q -13 53 35 180 q 83 307 101 322 q 105 326 114 326 q 123 326 133 316 q 143 307 144 294 q 144 293 94 178 q 45 63 48 41 q 91 54 202 146 q 312 238 312 311 q 312 355 268 375 q 261 378 261 384 q 261 393 272 393 z"},"O":{"x_min":0,"x_max":784,"ha":784,"o":"m 812 356 q 812 231 684 117 q 487 -59 243 -59 q 216 -59 201 -58 q 121 -54 72 -6 q 24 43 24 120 q 24 197 65 288 q 117 403 268 512 q 442 636 628 636 q 728 636 780 597 q 832 558 832 500 q 832 464 804 411 q 812 384 812 356 z m 791 441 q 801 465 801 494 q 801 524 779 555 q 736 615 627 615 q 476 615 342 522 q 208 428 133 286 q 78 183 78 101 q 78 -31 211 -38 q 225 -39 239 -39 q 436 -39 614 120 q 742 234 752 337 q 700 280 572 201 l 564 199 q 563 199 563 200 q 563 204 590 227 l 646 273 q 718 336 751 376 q 744 432 700 470 q 657 507 601 524 q 573 531 514 533 q 456 535 456 537 q 456 539 458 541 q 504 556 546 556 q 589 556 644 543 q 749 518 791 441 z"},"(":{"x_min":0,"x_max":375,"ha":375,"o":"m 615 760 q 635 757 635 748 q 635 738 610 737 q 435 720 286 591 q 177 495 114 377 q 52 259 52 174 q 52 88 90 42 q 129 -3 201 -9 q 224 -11 224 -20 q 224 -34 200 -34 q 196 -34 191 -34 q 111 -26 53 38 q -5 103 -5 206 q -5 286 36 376 q 95 505 253 618 q 429 745 615 760 z"},"C":{"x_min":0,"x_max":726,"ha":726,"o":"m 541 278 q 481 278 440 306 q 399 333 399 375 q 399 428 468 481 q 480 490 486 490 q 492 490 492 486 q 492 476 476 470 q 420 425 420 379 q 420 346 450 324 q 480 301 525 301 q 623 301 710 395 q 755 444 755 508 q 755 572 707 603 q 667 631 599 631 q 501 631 402 582 q 280 523 182 398 q 83 274 83 159 q 83 68 145 18 q 207 -31 299 -31 q 404 -31 505 20 q 582 60 638 122 q 654 140 663 140 q 669 140 669 130 q 669 119 658 108 q 605 52 505 0 q 382 -65 258 -65 q 133 -65 72 17 q 31 71 31 146 q 31 179 39 217 q 66 345 181 466 q 264 553 378 602 q 492 650 594 650 q 648 650 688 637 q 797 603 797 500 q 797 437 760 391 q 668 278 541 278 z"},"W":{"x_min":0,"x_max":1135,"ha":1135,"o":"m 633 27 q 633 -40 700 -40 q 790 -40 917 90 q 1032 206 1092 326 q 1153 447 1153 510 q 1153 520 1151 530 q 1129 530 1106 553 l 1106 552 q 1091 564 1091 576 q 1091 589 1101 597 q 1111 605 1127 605 q 1143 605 1150 592 q 1156 580 1166 570 q 1176 560 1175 556 q 1181 547 1194 547 q 1206 547 1222 559 q 1238 571 1248 571 q 1257 571 1257 565 q 1257 554 1238 544 q 1228 536 1214 535 l 1182 535 q 1194 494 1194 476 q 1194 396 1118 268 q 1041 140 921 41 q 800 -61 702 -61 q 603 -61 603 35 q 603 111 667 252 l 739 409 l 641 333 q 595 295 548 250 q 500 204 382 62 l 266 -80 q 238 -112 216 -112 q 199 -112 199 -90 q 199 -68 217 -33 l 410 245 q 585 502 585 571 q 585 609 515 609 q 430 609 278 505 q 196 449 134 364 q 72 280 72 224 q 72 169 146 169 q 215 169 288 233 q 314 255 318 255 q 322 255 321 248 q 310 210 240 176 q 169 141 115 141 q 101 141 96 142 l 95 142 q 15 159 15 221 q 15 283 84 370 q 206 524 398 599 q 497 637 561 637 q 640 637 640 585 q 640 477 368 116 q 277 -5 276 -5 q 279 -5 380 108 q 482 221 573 301 q 608 332 694 415 q 739 457 791 491 q 804 499 828 499 q 853 499 862 485 q 770 371 702 230 q 633 88 633 27 z m 1214 535 l 1215 535 z"},"A":{"x_min":0,"x_max":1020,"ha":1020,"o":"m 946 286 l 1043 288 q 1079 288 1079 283 q 1079 270 933 260 q 840 78 840 12 q 840 -34 869 -34 q 880 -34 896 -20 q 913 -7 916 -7 q 920 -7 920 -12 q 915 -30 890 -42 q 864 -54 846 -54 q 829 -54 819 -52 q 795 -43 795 6 q 795 107 872 263 l 752 260 q 618 129 483 30 q 281 -117 167 -117 q 160 -117 153 -116 q -1 -103 -1 42 q -1 128 53 224 q 125 352 250 442 q 375 533 474 533 q 573 533 573 460 q 573 411 543 351 q 513 291 482 275 q 479 274 476 274 q 472 274 472 276 l 505 330 q 539 383 539 423 q 539 463 522 488 q 504 512 466 512 q 388 512 280 425 q 171 338 114 211 q 58 84 58 13 q 58 -94 167 -94 q 271 -94 449 40 q 528 99 706 263 q 671 261 641 256 q 577 244 581 260 q 585 297 619 297 q 685 289 730 289 q 816 368 987 548 q 1102 669 1127 669 q 1138 669 1138 652 q 1138 635 1129 599 q 1120 563 1109 555 q 1086 539 1066 512 q 1046 484 1009 408 q 972 333 946 286 z m 1026 530 l 770 290 l 829 290 q 850 289 881 289 q 910 346 1026 530 z"},"f":{"x_min":0,"x_max":242,"ha":242,"o":"m 408 489 q 408 458 390 458 q 385 458 380 466 q 371 482 350 482 q 304 482 264 416 q 256 403 214 322 l 226 322 q 335 322 371 325 q 375 324 375 321 q 375 313 304 299 q 237 288 194 280 q 163 216 119 128 q 29 -40 0 -81 q -87 -205 -170 -205 q -199 -205 -220 -180 q -242 -156 -243 -126 q -240 -114 -234 -114 q -231 -114 -230 -121 q -224 -147 -210 -161 q -196 -175 -181 -175 q -96 -175 -26 -70 q 14 -10 83 146 l 137 276 q 37 277 37 300 q 37 310 46 317 q 56 324 63 324 l 157 322 q 255 540 337 540 q 368 540 400 510 q 408 502 408 489 z"},"Q":{"x_min":0,"x_max":797,"ha":797,"o":"m 97 -82 q 86 -82 86 -44 q 86 -30 88 -19 q 24 30 24 125 q 24 197 65 288 q 117 403 268 512 q 442 636 628 636 q 728 636 780 597 q 832 558 832 500 q 832 464 804 411 q 812 384 812 356 q 812 231 684 117 q 570 15 443 -27 q 646 -173 717 -173 q 733 -173 746 -164 q 759 -156 759 -144 q 759 -133 752 -123 q 749 -116 749 -112 q 749 -98 766 -117 q 784 -136 784 -157 q 784 -178 764 -192 q 744 -206 712 -206 q 608 -206 381 -45 q 319 -59 242 -59 q 165 -59 118 -37 q 104 -82 97 -82 z m 791 441 q 801 465 801 494 q 801 524 779 555 q 736 615 627 615 q 476 615 342 522 q 208 428 133 286 q 78 183 78 101 q 78 49 100 17 q 111 44 127 66 q 152 102 192 102 q 232 102 273 79 q 327 50 411 -5 q 518 35 614 120 q 741 232 752 337 q 700 280 572 201 l 564 199 q 563 199 563 200 q 563 204 590 227 l 646 273 q 718 336 751 376 q 744 432 700 470 q 657 507 601 524 q 573 531 514 533 q 456 535 456 537 q 456 539 458 541 q 504 556 546 556 q 589 556 644 543 q 749 518 791 441 z m 350 -24 q 235 46 193 46 q 151 46 136 14 l 126 -10 q 160 -37 211 -38 q 221 -38 231 -38 q 289 -38 350 -24 z"},"w":{"x_min":0,"x_max":449,"ha":449,"o":"m 402 314 q 402 320 408 320 q 426 320 436 298 q 448 279 448 232 q 448 160 385 84 q 322 9 249 9 q 214 9 192 43 q 171 77 171 113 q 171 149 187 201 q 158 172 102 102 q 46 31 26 -2 q 16 -2 -2 9 q -19 20 -19 30 q -19 54 42 188 q 103 323 133 323 q 144 323 153 312 q 162 302 162 296 q 162 291 108 194 q 53 96 54 76 q 149 191 155 198 q 252 310 282 310 q 293 310 304 300 q 314 291 314 284 q 314 276 286 239 q 258 202 238 166 q 219 131 219 95 q 219 32 261 32 l 274 32 q 328 32 372 114 q 417 197 417 247 q 417 287 404 309 q 402 311 402 314 z"},"-":{"x_min":0,"x_max":297,"ha":297,"o":"m 105 260 l 202 259 q 260 259 285 262 q 286 261 286 259 q 286 244 207 230 q 164 224 126 218 q 89 211 78 211 q 68 211 44 216 q 19 220 19 235 q 19 245 28 252 q 36 259 42 259 q 48 259 54 260 l 80 260 q 91 260 105 260 z"},"E":{"x_min":0,"x_max":691,"ha":691,"o":"m 504 407 q 602 407 602 370 q 602 362 596 352 q 572 315 509 315 q 468 315 425 330 q 382 344 360 360 q 267 333 194 277 q 122 221 86 150 q 67 112 67 76 q 67 20 114 -15 q 160 -50 250 -50 q 275 -50 302 -47 q 461 -30 555 55 q 634 125 634 202 q 634 263 575 263 q 504 263 412 187 q 389 168 373 139 q 357 110 357 82 q 357 54 385 47 q 395 43 395 37 q 395 27 375 29 q 327 30 327 92 q 327 154 390 208 q 476 282 572 282 q 644 282 663 237 q 671 216 671 195 q 671 102 568 20 q 445 -80 256 -80 q 139 -80 71 -36 q 3 7 3 77 q 3 118 29 159 q 121 305 343 376 q 310 414 310 457 q 310 500 331 529 q 372 585 454 621 q 552 664 650 664 q 707 664 742 646 q 776 627 776 588 q 776 550 748 524 q 719 497 688 497 q 657 497 657 512 q 657 521 670 521 l 690 518 q 710 518 726 540 q 743 561 743 584 q 743 618 704 634 q 679 644 657 644 q 635 644 626 643 q 540 638 458 583 q 362 520 362 441 q 362 412 382 387 q 446 407 504 407 z m 399 371 q 442 337 498 337 q 554 337 554 368 q 554 382 504 382 q 454 382 399 371 z"},"s":{"x_min":0,"x_max":359,"ha":359,"o":"m 184 15 q 155 -2 112 -2 q 70 -2 48 26 q 25 54 9 115 q -9 97 -16 97 q -21 97 -21 104 q -21 111 -16 116 q 17 157 96 234 l 222 352 q 276 403 286 403 q 318 403 318 379 q 318 367 308 356 q 299 344 294 338 q 290 331 285 325 q 267 294 248 197 q 230 100 220 62 q 303 63 391 170 q 401 180 406 180 q 411 180 411 174 q 411 167 402 156 q 344 88 294 61 q 264 46 216 36 z m 49 126 q 49 92 72 70 q 94 49 122 49 q 150 49 165 60 q 185 71 204 152 q 224 233 228 295 l 232 329 q 177 288 114 223 q 52 158 50 137 q 49 131 49 126 z"},">":{"x_min":0,"x_max":318,"ha":318,"o":"m 229 315 q 229 295 110 140 q 102 129 94 129 q 85 129 85 135 q 85 150 184 288 q 86 413 86 424 q 86 435 97 435 l 105 431 q 141 383 226 321 q 229 320 229 315 z"},"l":{"x_min":0,"x_max":243,"ha":243,"o":"m 258 150 q 270 166 277 166 q 284 166 284 160 q 284 154 243 108 q 143 -2 76 -2 q 43 -2 20 14 q -3 29 -3 62 q -3 94 14 137 q 43 205 107 308 q 224 498 273 498 q 283 498 294 490 q 304 483 305 474 q 282 443 216 355 q 151 267 126 228 q 101 190 88 171 q 76 152 70 142 q 64 131 56 114 q 39 80 39 50 q 39 20 72 20 q 105 20 157 55 q 209 90 258 150 z"},"8":{"x_min":0,"x_max":608,"ha":608,"o":"m 515 370 q 588 324 588 262 q 588 200 511 135 q 434 70 326 26 q 219 -18 134 -18 q 50 -18 22 15 q 1 39 1 72 q 1 132 62 197 q 176 321 331 401 q 269 439 269 474 q 269 485 273 494 q 295 554 370 592 q 444 630 509 630 q 574 630 609 610 q 636 594 636 570 q 636 546 618 521 l 702 548 q 710 550 714 546 q 718 542 718 536 q 718 517 689 510 q 571 484 423 415 q 483 390 515 370 z m 587 586 q 548 600 507 600 q 436 600 384 568 q 332 536 332 498 q 332 456 394 428 q 465 462 585 510 q 606 551 606 565 q 606 579 587 586 z m 56 66 q 56 1 137 1 q 202 1 292 38 q 531 136 531 238 q 531 298 445 342 l 359 386 q 271 336 177 251 q 56 140 56 66 z"},"\\":{"x_min":0,"x_max":551,"ha":551,"o":"m 54 698 q 78 698 305 396 q 535 87 566 2 q 588 -58 588 -91 q 588 -124 571 -124 q 557 -124 550 -114 q 546 -106 554 -102 q 561 -99 561 -82 q 561 -66 555 -48 q 523 36 348 270 q 174 505 39 660 q 30 671 30 678 q 30 685 36 692 q 43 698 54 698 z"},"e":{"x_min":0,"x_max":257,"ha":257,"o":"m 51 -13 q 40 -13 31 -10 q -33 8 -33 62 q -33 132 55 224 q 143 316 213 316 q 236 316 250 304 q 265 291 265 273 q 265 217 180 166 q 96 115 43 115 q 35 115 29 117 q 14 90 14 60 q 14 8 64 8 q 113 8 192 75 q 253 124 296 179 q 305 191 312 191 q 318 191 318 185 q 318 179 310 168 q 256 97 180 42 q 104 -13 51 -13 z m 240 275 q 240 287 214 287 q 189 287 142 248 q 79 196 44 139 q 50 137 57 137 q 95 137 158 178 q 222 218 238 266 q 240 271 240 275 z"},"b":{"x_min":0,"x_max":365,"ha":365,"o":"m 228 249 q 228 317 270 317 q 274 317 279 316 q 296 313 296 290 q 296 267 288 232 q 280 206 277 193 q 280 176 294 150 q 307 123 330 123 q 354 123 383 155 q 389 162 394 162 q 400 162 400 156 q 401 149 393 138 q 362 101 328 101 q 279 101 249 173 q 218 102 161 50 q 104 -1 48 -1 q -5 -1 -5 79 q -5 142 112 311 q 230 480 292 480 q 305 480 316 472 q 326 464 326 453 q 326 454 312 438 q 297 422 232 352 q 168 282 106 198 q 44 114 44 68 q 44 56 50 42 q 57 28 72 28 q 116 28 175 96 q 224 156 235 197 q 228 218 228 249 z"},"%":{"x_min":0,"x_max":701,"ha":701,"o":"m 645 705 q 649 707 655 707 q 661 707 668 700 q 674 694 674 687 q 674 680 665 669 q 530 514 356 280 q 181 45 149 -39 q 143 -57 143 -74 q 143 -90 150 -94 q 158 -98 154 -105 q 147 -115 133 -115 q 116 -115 116 -82 q 116 -49 140 16 q 163 81 330 312 q 498 542 606 665 q 556 641 484 620 q 413 599 365 597 q 366 593 366 588 q 366 553 299 471 q 220 374 164 374 l 148 374 q 122 374 107 401 q 95 420 95 443 q 95 503 182 612 q 270 720 324 720 q 375 720 375 666 q 375 652 370 630 q 371 628 380 628 q 389 628 411 631 q 512 643 645 705 z m 588 163 q 588 150 565 141 q 566 137 566 132 q 566 97 499 15 q 420 -82 364 -82 l 348 -82 q 322 -82 307 -55 q 295 -36 295 -13 q 295 47 382 156 q 470 264 524 264 q 575 264 575 210 q 575 196 570 174 q 570 173 579 170 q 588 168 588 163 z m 301 640 q 267 640 204 560 q 142 480 142 442 q 142 404 166 404 q 209 404 275 482 q 341 560 341 594 q 325 603 301 640 z m 501 184 q 467 184 404 104 q 342 24 342 -14 q 342 -52 366 -52 q 409 -52 475 26 q 541 104 541 138 q 525 147 501 184 z"},"m":{"x_min":0,"x_max":631,"ha":631,"o":"m 478 12 q 410 12 410 75 q 410 111 442 174 q 474 236 509 279 q 447 249 366 170 q 285 92 253 6 q 248 -2 236 -2 q 212 -2 212 25 q 222 80 257 151 q 268 174 322 285 q 244 234 190 176 q 135 117 88 58 q 42 -1 36 -1 q 23 -1 14 11 q 4 23 4 35 q 4 53 56 167 l -4 104 q -26 82 -32 82 q -37 82 -37 88 q -37 95 -29 103 q 8 140 37 177 q 66 214 133 309 q 144 324 164 324 q 184 324 184 305 q 184 298 131 208 q 78 117 72 94 q 113 139 195 215 q 318 329 357 329 q 369 329 379 322 q 389 315 389 306 q 389 298 350 231 q 312 162 308 149 q 419 242 419 243 q 513 316 554 316 q 566 316 576 308 q 587 301 587 291 q 587 289 522 206 q 457 124 449 71 q 447 53 456 44 q 465 35 488 35 q 512 35 558 68 q 603 100 650 155 q 668 175 674 175 q 681 175 681 170 q 681 163 672 154 q 623 95 566 54 q 510 12 478 12 z"},"#":{"x_min":0,"x_max":791,"ha":791,"o":"m 578 474 l 744 478 q 779 478 779 470 q 779 463 756 455 q 700 433 657 433 l 563 433 l 497 258 l 641 259 q 691 259 691 248 q 691 240 669 233 q 615 214 570 214 l 480 213 l 445 117 q 418 38 393 38 q 381 38 381 54 q 381 70 386 92 q 404 137 431 213 l 234 212 l 199 117 q 172 38 148 38 q 135 38 135 55 q 135 72 141 92 q 162 140 190 212 l 85 211 q -9 211 -9 237 q -9 254 42 257 l 208 258 q 233 326 271 432 q 169 431 166 431 q 86 431 80 453 q 72 473 129 477 q 151 477 287 475 l 333 605 q 349 649 358 649 q 367 649 367 622 q 365 563 351 524 l 333 475 q 489 473 524 473 q 588 644 606 647 q 616 649 616 621 q 613 566 597 524 z m 317 432 l 251 258 l 447 258 q 458 290 509 433 z"},",":{"x_min":0,"x_max":194,"ha":194,"o":"m 168 29 q 168 -13 136 -46 q 104 -80 92 -80 q 81 -80 81 -78 q 81 -76 102 -52 q 124 -27 124 -12 q 124 3 110 15 q 97 27 97 33 q 97 63 126 63 q 141 63 154 53 q 168 43 168 29 z"},"n":{"x_min":0,"x_max":403,"ha":403,"o":"m 161 316 q 188 316 188 295 q 188 289 185 283 q 95 158 77 94 q 310 327 360 327 q 365 328 369 328 q 397 328 397 303 q 397 298 395 293 q 393 288 355 239 q 311 187 280 139 q 250 91 250 59 q 250 27 264 27 q 308 27 417 148 q 419 150 424 157 q 439 175 442 175 q 445 175 445 165 q 445 155 431 139 q 307 -2 255 -2 q 206 -2 206 52 q 206 106 246 176 l 310 280 q 242 230 189 170 q 136 111 92 55 q 49 -1 42 -1 q 27 -1 18 12 q 10 24 10 42 q 10 61 23 92 q 36 123 56 167 l -4 104 q -26 82 -32 82 q -37 82 -37 88 q -37 95 -29 103 q 8 140 35 174 q 61 208 142 304 q 151 316 161 316 z"},"h":{"x_min":0,"x_max":376,"ha":376,"o":"m 237 4 q 178 4 178 73 q 178 112 206 160 q 233 207 273 271 q 145 207 41 82 q -17 -5 -27 -5 q -56 -5 -56 12 q -56 21 -44 44 q 53 217 103 297 q 222 488 271 504 q 273 505 275 505 q 288 505 293 484 q 290 463 189 332 q 84 199 70 158 q 107 185 199 249 q 298 318 330 318 q 362 318 362 293 q 362 289 362 288 q 361 286 292 193 q 223 100 223 56 q 223 33 240 33 q 294 35 402 163 q 411 172 416 172 q 420 172 420 166 q 420 146 321 58 q 259 4 237 4 z"},"z":{"x_min":0,"x_max":386,"ha":386,"o":"m 67 41 q 27 13 10 13 q -13 13 -13 38 q -13 47 -7 60 q -1 73 5 73 q 14 73 9 58 q 6 43 18 43 q 30 43 47 55 l 9 84 q 7 86 7 91 q 7 96 17 106 q 27 115 32 115 q 38 115 81 81 q 205 221 263 265 q 184 289 146 289 q 135 289 125 288 q 115 286 104 276 q 92 265 92 252 q 92 239 103 230 q 114 222 114 217 q 114 212 106 212 q 99 212 82 232 q 66 252 66 273 q 66 308 117 319 q 144 324 172 324 q 200 324 310 288 q 324 296 340 296 q 382 296 382 271 q 382 261 369 252 q 356 244 338 244 q 320 244 305 251 q 210 192 101 65 l 137 37 q 180 9 237 9 q 294 9 321 27 q 348 45 348 73 q 348 86 343 98 q 338 109 352 109 q 357 109 362 98 q 367 86 367 70 q 367 30 329 4 q 291 -22 231 -22 q 165 -22 122 3 q 105 12 67 41 z"},"B":{"x_min":0,"x_max":819,"ha":819,"o":"m 770 189 q 770 153 754 121 q 720 49 624 1 q 528 -47 424 -47 q 266 -47 209 61 q 106 -25 62 -25 q 54 -25 48 -22 q 18 -6 18 47 q 18 100 62 177 q 106 254 139 268 q 154 273 162 273 q 191 273 206 225 l 236 129 q 265 160 315 228 l 404 348 q 568 561 619 581 q 637 588 656 588 q 675 588 688 580 q 700 572 700 560 q 700 542 671 539 q 641 522 556 440 q 472 357 456 335 q 344 179 249 95 q 310 -26 432 -26 q 506 -26 579 20 q 652 67 688 135 q 704 164 704 200 q 704 236 676 268 q 647 301 604 316 q 584 319 540 324 q 496 330 496 343 q 496 348 500 352 q 512 366 531 366 q 542 366 552 362 q 563 358 569 356 q 575 354 583 351 q 605 349 621 349 q 687 349 741 370 q 810 397 829 451 q 841 486 841 514 q 841 583 774 617 q 716 647 615 647 q 456 647 330 587 q 266 557 208 498 q 151 439 151 397 q 151 368 166 349 q 172 341 187 329 q 192 326 181 326 q 119 340 119 409 q 119 478 189 539 q 241 584 306 612 q 441 670 613 670 q 736 670 809 634 q 894 594 894 513 q 894 481 881 448 q 860 388 772 357 q 706 334 630 333 q 689 330 730 290 q 770 249 770 189 z m 131 226 q 130 226 126 224 q 52 117 52 52 q 52 25 65 3 q 68 -2 75 -2 q 107 -2 198 89 l 195 93 q 155 226 131 226 z"},"K":{"x_min":0,"x_max":936,"ha":936,"o":"m 832 697 q 853 697 853 682 q 853 621 685 333 q 692 306 707 270 l 1005 497 q 1176 627 1236 664 q 1370 744 1499 744 q 1536 744 1567 732 q 1586 725 1586 706 q 1586 687 1576 687 q 1570 687 1564 695 q 1557 703 1526 703 q 1494 703 1423 687 q 1311 662 1169 575 q 1080 520 931 406 q 782 292 716 249 q 767 142 847 50 q 970 -93 1068 -93 q 1116 -93 1116 -56 q 1116 -49 1114 -42 q 1113 -35 1118 -25 q 1123 -15 1130 -15 q 1143 -15 1147 -46 q 1148 -51 1148 -56 q 1148 -88 1116 -108 q 1083 -129 1038 -129 q 994 -129 964 -115 q 885 -76 804 22 q 724 120 681 228 q 626 196 590 193 q 523 106 425 24 q 372 -21 310 -48 q 248 -76 191 -76 q 110 -76 66 -36 q 22 5 22 88 q 22 129 38 164 q 89 277 192 320 q 249 345 306 345 q 362 345 381 308 q 388 295 388 280 q 388 266 384 262 q 380 258 373 269 q 349 313 322 318 q 304 320 296 320 q 218 320 150 255 q 62 170 62 71 q 62 -37 184 -51 q 188 -51 192 -51 q 236 -51 305 -12 q 417 52 544 208 q 521 229 521 270 q 521 311 552 348 q 582 384 635 384 q 650 384 663 381 q 713 465 760 562 q 807 660 807 675 q 807 677 801 677 q 795 677 732 646 q 668 614 641 596 q 614 578 575 540 q 536 501 536 477 q 536 466 552 455 q 567 444 608 444 q 613 442 613 438 q 613 435 586 430 q 558 426 542 426 q 506 426 506 456 q 506 491 549 540 q 592 589 643 617 q 792 697 832 697 z m 673 249 q 665 269 660 289 q 640 260 620 232 q 630 232 638 234 q 646 235 673 249 z m 635 335 q 623 340 608 340 q 594 340 580 322 q 565 304 565 284 q 565 263 576 249 q 625 319 635 335 z"},"R":{"x_min":0,"x_max":752,"ha":752,"o":"m 572 270 q 522 270 479 278 q 493 234 538 79 q 552 34 582 -12 q 623 -71 658 -71 q 700 -71 728 14 q 733 34 738 34 q 744 34 746 22 q 749 11 749 7 q 749 -18 721 -57 q 684 -112 640 -112 q 596 -112 559 -68 q 522 -24 486 92 q 451 209 451 241 q 451 246 452 249 q 332 90 280 39 q 164 -74 43 -74 q -42 -74 -42 -10 q -42 22 -22 60 q -2 99 27 128 q 56 157 78 157 q 82 157 82 155 q 82 150 57 130 q 32 110 9 74 q -14 37 -14 7 q -14 -46 57 -46 q 190 -46 423 266 q 436 283 445 290 l 429 296 q 416 291 408 291 q 387 291 387 308 q 387 331 418 338 q 422 339 425 339 q 443 339 467 321 q 555 419 557 421 q 630 496 656 496 q 681 496 681 474 q 681 464 676 455 q 672 446 666 446 q 660 444 660 452 q 660 456 666 464 q 667 478 657 478 q 625 478 502 308 q 532 306 552 306 q 784 306 842 426 q 854 452 854 474 q 854 518 814 550 q 750 602 606 602 q 462 602 312 529 q 130 440 130 320 q 130 281 179 281 q 228 281 283 317 q 338 353 357 388 q 364 401 370 401 q 377 401 374 393 q 355 337 290 298 q 224 258 153 258 q 82 258 82 303 q 82 306 82 310 q 97 441 242 532 q 388 624 593 624 q 784 624 864 558 q 912 518 912 464 q 912 441 901 414 q 870 341 774 306 q 678 270 572 270 z"},"T":{"x_min":0,"x_max":661,"ha":661,"o":"m 28 67 q 28 175 92 281 q 18 328 18 420 q 18 531 116 617 q 226 714 400 714 q 480 714 572 691 q 593 686 751 614 q 909 541 978 541 q 1024 541 1047 567 q 1059 580 1059 595 q 1059 610 1046 622 q 1039 632 1039 635 q 1039 638 1044 638 q 1050 638 1064 620 q 1077 603 1077 580 q 1077 556 1046 534 q 1014 513 966 513 q 891 513 733 586 q 575 658 534 666 q 494 674 442 674 q 235 674 116 540 q 102 525 83 480 q 64 434 64 392 q 64 334 105 302 q 157 378 228 423 q 299 468 372 468 q 462 468 462 398 q 462 314 364 216 q 265 117 181 117 q 127 117 127 163 q 127 179 136 191 q 144 203 156 200 l 154 177 q 154 162 200 162 q 268 162 344 232 q 419 302 435 369 q 439 384 439 396 q 439 441 382 441 q 324 441 262 397 q 201 353 147 281 q 151 279 178 273 l 238 271 q 282 269 282 261 q 282 247 240 247 q 237 247 234 247 q 173 247 134 262 q 57 144 57 45 q 57 -83 156 -83 q 268 -83 389 73 l 585 365 q 695 525 776 529 l 814 520 q 832 510 832 490 q 832 470 822 470 l 790 475 q 721 475 613 326 l 414 48 q 286 -101 169 -101 q 89 -101 58 -58 q 28 -15 28 67 z"},"P":{"x_min":0,"x_max":1057,"ha":1057,"o":"m 1196 447 q 1196 396 1145 335 q 1094 274 990 236 q 887 198 790 198 q 692 198 635 223 q 509 38 471 0 q 363 -108 213 -108 q 128 -108 86 -68 q 43 -29 43 34 q 43 121 113 198 q 190 283 307 283 q 355 283 388 261 q 421 239 421 194 q 421 164 387 122 q 353 80 345 80 q 343 80 343 84 q 343 88 346 92 q 378 139 378 178 q 378 218 354 240 q 329 261 293 261 q 209 261 144 184 q 80 108 80 30 q 80 -20 112 -51 q 143 -82 209 -82 q 332 -82 420 1 q 471 49 523 141 l 610 298 q 674 401 759 604 q 750 604 741 604 q 606 604 470 574 q 334 545 264 490 q 234 467 234 445 q 234 423 258 410 q 281 396 313 396 q 345 396 392 408 q 440 421 464 442 q 474 450 478 450 q 486 450 481 442 q 445 400 372 379 q 327 366 283 366 q 239 366 211 386 q 183 405 183 438 q 183 472 219 506 q 287 572 462 604 q 586 626 747 626 q 760 626 774 626 q 796 645 814 645 q 832 645 832 631 q 832 628 831 624 q 986 613 1082 572 q 1196 524 1196 447 z m 1149 457 q 1149 520 1047 560 q 958 595 824 602 l 792 502 q 754 408 646 240 q 656 235 680 229 q 720 222 742 222 q 818 222 917 254 q 1016 285 1082 346 q 1149 406 1149 457 z"},"|":{"x_min":0,"x_max":219,"ha":219,"o":"m 52 -102 q 51 -102 51 -100 q 51 -99 55 -82 q 70 -19 86 59 q 119 251 119 440 q 119 518 113 558 q 101 608 101 617 q 101 626 118 626 q 158 626 158 538 q 158 449 130 199 q 101 -51 76 -85 q 64 -102 52 -102 z"},"t":{"x_min":0,"x_max":297,"ha":297,"o":"m 261 322 l 405 324 q 408 322 408 321 q 408 312 284 296 q 159 280 149 277 q 130 260 79 176 q 28 91 28 52 q 28 15 79 15 q 103 15 142 30 q 181 45 202 58 q 258 93 322 161 q 336 175 341 175 q 344 175 344 169 q 344 163 329 145 q 277 81 212 42 q 134 -6 63 -6 q 32 -6 12 8 q -7 21 -7 62 q -7 103 29 174 q 65 246 84 281 q 70 278 60 278 q 31 278 31 301 q 31 318 55 325 q 58 325 64 326 l 122 326 q 140 349 163 379 q 191 415 201 415 q 211 415 226 407 q 241 399 241 388 q 241 377 193 323 q 219 322 261 322 z"},"M":{"x_min":0,"x_max":1136,"ha":1136,"o":"m 423 41 q 399 4 399 -7 q 399 -18 408 -23 q 408 -24 390 -38 q 374 -46 354 -46 q 334 -46 325 -42 q 316 -37 319 -27 q 333 18 424 154 q 515 289 546 345 q 613 466 613 538 q 613 568 603 589 q 583 630 508 630 q 391 630 266 529 q 166 448 113 358 q 60 267 60 196 q 60 94 150 92 q 154 92 158 92 q 273 92 336 175 q 360 208 360 231 q 360 254 350 260 q 349 261 349 264 q 349 267 355 267 q 381 267 381 233 q 381 212 360 176 q 340 140 288 108 q 236 76 167 76 q 98 76 57 119 q 16 162 16 232 q 16 390 222 555 q 275 597 362 624 q 448 651 527 651 q 606 651 634 624 q 663 596 663 550 q 663 480 606 361 q 588 324 525 226 l 602 324 q 658 397 796 532 q 826 561 862 580 q 899 600 925 600 q 961 600 961 562 q 961 529 930 462 q 898 396 866 336 q 834 277 827 258 q 820 240 817 229 q 814 218 813 217 q 816 222 879 294 q 942 365 1065 472 l 1225 604 q 1244 620 1259 620 q 1274 620 1284 595 q 1293 570 1293 554 q 1293 539 1245 490 q 1120 362 1033 210 q 946 58 946 -7 q 946 -24 952 -30 q 958 -37 971 -34 q 984 -32 1026 -14 q 1067 4 1080 7 q 1085 5 1085 2 q 1085 -13 1032 -40 q 980 -67 954 -67 q 927 -67 921 -58 q 903 -32 903 5 q 903 91 995 252 q 1054 353 1177 524 q 1081 446 917 285 q 753 124 702 33 q 676 -14 639 -14 q 622 -14 622 -2 q 622 2 642 34 q 663 66 733 184 q 905 483 905 544 q 905 560 894 560 q 878 560 847 533 q 736 440 611 290 q 486 140 423 41 z"},"g":{"x_min":0,"x_max":370,"ha":370,"o":"m 334 305 l 348 308 q 361 308 368 300 q 376 292 376 288 q 376 283 375 278 q 374 272 346 227 q 311 166 288 124 q 207 -27 164 -83 q 72 -205 -11 -205 q -40 -205 -62 -180 q -83 -156 -84 -126 q -81 -114 -75 -114 q -72 -114 -70 -121 q -65 -147 -51 -161 q -37 -175 -23 -175 q 34 -175 99 -100 q 142 -50 194 46 l 244 145 l 169 69 q 97 0 70 0 q 44 0 20 18 q -7 38 -7 71 q -7 144 96 245 q 198 346 282 346 q 316 346 326 324 q 329 316 331 310 q 333 305 334 305 z m 35 59 q 35 23 60 23 q 118 23 218 150 l 324 296 q 318 310 299 310 q 237 310 136 214 q 35 119 35 59 z"},"j":{"x_min":0,"x_max":201,"ha":201,"o":"m 166 381 q 166 410 204 410 q 219 410 232 400 q 246 390 246 378 q 246 365 234 356 q 221 346 206 346 q 191 346 178 356 q 166 367 166 381 z m 185 272 q 185 266 106 130 q 29 -17 -13 -75 q -104 -205 -184 -205 q -214 -205 -240 -186 q -265 -166 -265 -146 q -265 -127 -256 -127 q -255 -127 -236 -152 q -216 -178 -190 -178 q -110 -178 -8 3 q 55 116 78 186 q 66 172 36 145 q 7 118 0 118 q -6 118 -6 121 q -6 130 10 144 q 26 158 53 197 q 80 236 85 240 l 118 275 q 138 294 162 294 q 185 294 185 272 z"},"i":{"x_min":0,"x_max":226,"ha":226,"o":"m 179 380 q 179 408 217 408 q 232 408 246 398 q 259 389 259 376 q 259 363 246 354 q 234 344 219 344 q 204 344 192 355 q 179 366 179 380 z m 36 -11 q -15 -11 -15 55 q -15 109 44 204 q 103 300 139 301 q 149 301 162 293 q 174 285 174 277 q 169 270 162 262 q 155 253 147 243 q 139 233 125 214 q 111 196 98 179 q 23 82 23 46 q 23 9 48 9 q 69 9 105 32 q 189 84 238 146 q 256 169 262 169 q 269 169 269 161 q 269 153 246 129 q 223 105 210 91 q 196 77 191 72 q 186 68 172 56 q 159 43 152 38 q 145 33 132 23 q 119 13 109 8 q 99 4 86 -2 q 65 -11 36 -11 z"},"y":{"x_min":0,"x_max":370,"ha":370,"o":"m -56 -116 q -8 -176 27 -176 q 84 -176 150 -85 q 198 -18 244 84 l 282 176 l 135 61 q 67 8 26 8 q 4 8 -9 23 q -22 38 -22 57 q -22 100 52 198 q 126 297 160 297 q 194 297 194 274 q 194 265 106 170 q 17 76 17 43 q 17 30 34 30 q 66 30 162 105 q 259 180 308 229 q 319 242 339 268 q 358 290 381 290 q 404 290 404 268 q 404 264 359 197 q 314 130 312 126 q 281 66 217 -49 q 120 -205 23 -205 q -9 -205 -33 -178 q -57 -150 -56 -116 z"},"@":{"x_min":0,"x_max":842,"ha":842,"o":"m 802 439 q 802 314 674 201 q 478 26 233 26 q 206 26 191 27 q 112 32 63 80 q 14 128 14 204 q 14 281 55 371 q 107 484 260 593 q 432 716 618 716 q 717 716 769 678 q 821 641 821 582 q 821 547 808 520 q 794 493 795 492 q 802 468 802 439 z m 514 483 l 528 486 q 539 486 548 477 q 558 468 558 461 q 559 454 539 424 q 519 395 475 333 q 436 269 436 240 q 436 212 460 212 q 495 212 582 292 q 669 371 740 457 l 740 459 q 733 513 690 552 q 621 613 523 613 q 457 615 447 618 q 446 621 448 622 q 495 638 538 638 q 581 638 634 625 q 736 601 779 528 q 782 524 783 528 q 791 552 791 578 q 791 605 769 636 q 727 696 612 696 q 498 696 368 620 q 238 544 153 426 q 68 309 68 182 q 68 55 201 48 q 216 47 231 47 q 428 47 604 204 q 726 314 741 412 q 739 414 737 414 l 615 279 q 523 190 464 190 q 449 190 438 194 q 394 211 394 260 q 394 268 396 286 q 394 288 392 288 q 282 183 249 183 q 224 183 202 199 q 173 217 173 252 q 173 325 276 424 q 378 524 462 524 q 500 524 508 495 l 510 489 l 510 487 q 512 483 514 483 z m 215 239 q 215 205 240 205 q 290 205 379 307 q 401 331 452 402 q 504 474 504 474 q 504 474 503 475 q 496 487 479 487 q 416 487 316 394 q 215 300 215 239 z"},".":{"x_min":0,"x_max":226,"ha":226,"o":"m 88 34 q 88 63 126 63 q 141 63 154 53 q 168 43 168 30 q 168 18 156 8 q 143 -1 128 -1 q 113 -1 100 10 q 88 20 88 34 z"},"p":{"x_min":0,"x_max":377,"ha":377,"o":"m 377 226 q 377 145 284 72 q 192 0 124 0 q 79 0 58 6 q 38 12 13 42 q -4 28 -33 -30 q -62 -87 -62 -128 q -62 -147 -43 -178 q -41 -183 -46 -186 q -51 -190 -54 -190 q -56 -190 -58 -189 q -100 -166 -100 -100 q -100 -33 10 130 q 121 294 163 308 q 173 310 176 310 q 193 310 193 273 q 203 283 234 292 q 272 302 288 302 q 324 302 350 282 q 377 261 377 226 z m 326 236 q 326 274 281 274 q 236 274 199 255 q 182 247 105 167 q 28 87 28 64 q 28 46 56 37 q 83 28 111 28 q 166 28 246 90 q 326 153 326 236 z"},"X":{"x_min":0,"x_max":640,"ha":640,"o":"m 1006 644 q 940 644 764 502 q 650 410 558 318 q 550 297 537 249 q 494 93 494 37 q 494 8 511 8 q 552 8 655 110 q 672 127 672 116 q 672 86 600 33 q 510 -34 473 -34 q 440 -34 440 11 q 440 56 486 227 l 497 271 q 276 77 110 -13 q -6 -76 -73 -76 q -81 -76 -89 -75 q -167 -64 -167 21 q -167 106 -110 200 q -89 235 -76 235 q -72 235 -72 228 q -72 222 -79 212 q -134 124 -134 49 q -134 8 -116 -21 q -93 -53 -55 -53 q 25 -53 210 80 q 345 177 495 313 l 511 327 q 534 427 534 505 q 534 583 498 607 q 476 622 443 622 q 410 622 379 612 q 265 577 196 484 q 128 392 128 315 q 128 238 186 238 q 218 238 265 267 q 277 276 277 277 q 280 274 270 264 q 230 224 165 224 q 126 224 103 244 q 80 263 80 298 q 80 304 81 311 q 93 444 210 539 q 326 634 444 634 q 476 634 500 627 q 580 601 580 480 q 580 439 569 381 q 673 473 788 561 q 904 649 943 660 q 982 671 996 671 q 1009 671 1014 669 q 1033 662 1033 652 q 1033 643 1008 644 q 1007 644 1006 644 z"},"*":{"x_min":0,"x_max":352,"ha":352,"o":"m 301 364 q 325 364 325 357 q 325 354 315 348 q 305 341 286 340 q 268 339 260 338 q 234 337 216 337 l 262 275 q 281 250 281 245 q 281 220 192 317 l 167 233 q 161 218 154 218 q 145 218 145 243 l 159 319 l 107 280 q 84 264 74 264 q 65 264 65 271 q 65 278 77 290 l 143 338 l 80 338 q 40 338 40 351 q 40 360 62 363 l 151 367 q 129 400 114 421 q 96 442 96 452 q 96 461 103 461 q 110 461 123 449 l 174 385 l 192 459 q 195 476 204 492 q 206 493 207 493 q 214 493 214 468 q 214 443 202 381 l 260 421 q 284 438 288 438 q 291 438 291 438 q 299 435 288 419 q 276 403 222 364 z"},"Y":{"x_min":0,"x_max":882,"ha":882,"o":"m 336 -254 q 298 -254 262 -227 q 225 -200 225 -167 q 225 -146 246 -146 q 251 -146 261 -148 q 273 -190 281 -205 q 298 -232 339 -232 q 462 -232 641 104 l 821 425 q 628 219 548 138 q 467 58 437 40 q 377 4 338 4 q 281 4 281 71 q 281 151 349 236 q 354 242 392 288 q 429 333 480 396 q 530 459 564 518 q 597 576 597 600 q 597 623 583 630 q 554 645 517 645 q 411 645 224 517 q 146 464 100 394 q 54 324 54 265 q 54 206 111 191 q 129 186 146 186 q 197 186 259 230 q 332 279 341 282 q 331 245 262 201 q 186 154 120 154 q 111 154 86 158 q 62 161 38 194 q 14 227 14 274 q 14 410 213 552 q 271 594 366 628 q 461 662 520 662 q 578 662 608 644 q 639 625 639 584 q 639 544 583 458 q 527 373 406 226 q 381 197 360 150 q 339 104 339 76 q 339 49 360 49 q 382 49 425 80 q 547 167 668 291 q 790 415 847 499 q 888 558 934 558 q 950 558 950 548 q 950 546 948 540 q 822 320 605 -44 q 541 -149 468 -202 q 396 -254 336 -254 z"},"c":{"x_min":0,"x_max":283,"ha":283,"o":"m 76 -13 q 65 -13 56 -10 q -8 8 -8 62 q -8 132 80 224 q 168 316 238 316 q 261 316 276 304 q 290 291 290 270 q 290 248 277 224 q 264 201 238 201 q 212 201 212 217 q 212 228 226 250 q 239 273 239 274 q 239 276 236 276 q 208 273 160 236 q 111 199 93 174 l 54 117 q 44 101 40 79 q 35 57 35 46 q 35 35 48 21 q 60 7 83 7 q 133 7 207 66 q 281 124 321 177 q 326 183 333 183 q 340 183 340 179 q 340 175 335 169 q 280 96 204 42 q 127 -13 76 -13 z"},"!":{"x_min":0,"x_max":259,"ha":259,"o":"m 139 117 q 132 117 135 136 q 147 205 228 326 q 309 448 338 448 q 350 448 364 444 q 379 439 379 431 q 379 428 375 424 q 333 380 252 272 q 170 165 160 141 q 149 117 139 117 z m 77 38 q 77 66 116 66 q 131 66 144 56 q 157 47 157 34 q 157 21 144 12 q 132 2 117 2 q 102 2 90 13 q 77 24 77 38 z"},"/":{"x_min":0,"x_max":604,"ha":604,"o":"m 561 698 q 572 698 578 692 q 585 685 585 678 q 585 671 576 660 q 441 505 266 270 q 92 36 60 -48 q 54 -66 54 -82 q 54 -99 62 -102 q 70 -106 65 -114 q 58 -124 44 -124 q 27 -124 27 -91 q 27 -58 49 2 q 80 87 310 396 q 537 698 561 698 z"},"[":{"x_min":0,"x_max":585,"ha":585,"o":"m 164 4 l 239 9 q 268 9 268 -3 q 268 -17 184 -17 q 23 -17 23 19 q 23 138 152 386 q 282 634 380 701 q 406 718 490 718 q 573 718 573 697 q 573 693 572 684 q 568 683 558 683 l 486 687 q 442 687 426 677 q 410 667 370 620 q 289 524 188 338 q 87 151 87 60 q 87 4 164 4 z"},"6":{"x_min":0,"x_max":612,"ha":612,"o":"m 599 601 l 691 606 q 713 606 729 596 q 745 586 745 574 q 745 561 734 559 q 580 529 371 427 q 275 381 189 292 q 85 186 85 98 q 85 7 210 7 q 279 7 386 39 q 435 54 485 94 q 535 133 535 177 q 535 212 489 212 q 418 212 338 166 q 259 121 246 48 q 243 29 229 29 q 217 29 220 46 q 236 138 322 192 q 410 247 502 247 q 594 247 594 179 q 594 126 532 76 q 482 38 421 19 q 296 -19 212 -19 q 128 -19 89 14 q 50 48 50 101 q 50 187 132 291 q 215 395 341 463 q 496 547 594 580 q 578 584 574 586 q 571 587 572 591 q 574 595 584 598 q 593 602 599 601 z"},"r":{"x_min":0,"x_max":394,"ha":394,"o":"m 204 -5 q 129 -5 129 78 q 129 120 151 170 q 173 220 199 254 q 194 253 186 253 q 162 253 146 287 l 72 191 q 10 114 0 114 q -5 114 -5 118 q -5 128 12 147 q 99 248 135 318 q 158 405 193 405 q 216 405 216 385 q 216 365 191 334 l 167 302 q 167 281 198 281 q 216 281 238 294 l 264 310 q 266 311 274 311 q 282 311 291 301 q 300 291 297 283 l 228 196 q 164 114 164 66 q 164 19 208 19 q 254 19 321 68 q 361 97 394 133 q 425 169 428 169 q 435 169 435 162 q 435 154 426 144 l 394 108 q 367 80 334 54 q 255 -5 204 -5 z"},"2":{"x_min":0,"x_max":648,"ha":648,"o":"m 528 -11 q 566 -11 601 4 q 645 22 645 57 q 645 97 584 119 q 576 122 576 127 q 576 140 593 135 q 676 111 676 55 q 676 8 625 -20 q 574 -49 518 -49 q 461 -49 377 -20 l 238 30 q 191 44 163 44 q 127 27 45 -2 q 33 -5 24 -5 q 0 -5 0 13 q 0 35 26 55 q 64 80 137 80 q 154 80 171 79 q 405 220 475 275 q 545 330 579 372 q 626 428 636 492 q 638 504 638 509 q 638 563 571 563 q 504 563 410 520 q 315 477 261 429 q 257 425 252 425 q 242 425 242 437 q 242 444 248 449 q 317 508 432 559 q 546 610 633 610 q 720 610 720 539 q 720 461 627 367 q 587 325 485 244 q 383 164 197 67 q 240 62 350 26 q 460 -11 528 -11 z"},"{":{"x_min":0,"x_max":323,"ha":323,"o":"m 153 174 q 153 141 136 70 q 120 0 120 -42 q 120 -84 148 -96 l 213 -108 l 222 -116 q 208 -122 203 -122 q 147 -122 119 -108 q 80 -88 80 -34 q 80 1 98 72 q 116 142 116 179 q 116 257 9 259 l 20 275 q 91 283 118 304 q 152 329 165 393 l 187 516 q 202 578 240 609 q 278 640 359 640 q 362 640 364 640 l 366 640 q 372 640 377 631 l 364 626 q 287 626 256 583 q 235 554 221 474 q 217 448 203 391 q 170 285 87 265 q 153 241 153 174 z"},"9":{"x_min":0,"x_max":440,"ha":440,"o":"m 134 313 q 75 313 75 361 q 75 446 182 514 q 268 568 386 597 q 503 626 581 626 q 589 626 597 626 q 604 626 603 616 q 602 607 593 594 q 584 582 570 583 q 557 584 537 584 q 413 584 282 526 q 126 457 121 373 q 119 340 153 340 q 220 340 373 438 q 472 501 561 573 q 565 577 579 577 q 621 577 621 556 q 621 548 612 541 q 560 497 502 444 q 162 130 162 -91 q 162 -130 177 -135 q 192 -141 182 -148 q 178 -152 172 -152 q 165 -152 161 -152 q 120 -147 120 -91 q 120 15 222 174 q 325 332 454 458 q 245 313 134 313 z"}," ":{"x_min":0,"x_max":198,"ha":198,"o":""},"I":{"x_min":0,"x_max":576,"ha":576,"o":"m 714 396 l 707 423 q 707 431 715 431 q 718 431 723 428 q 746 411 746 383 q 746 355 710 328 q 674 302 619 302 q 602 302 585 305 q 516 178 417 71 q 285 -69 177 -69 q 21 -69 21 115 q 21 267 102 360 q 170 440 258 440 q 281 440 305 432 q 364 409 364 334 q 364 260 303 179 q 242 98 178 98 q 106 98 106 176 q 106 198 116 222 q 125 246 137 246 q 146 246 146 237 q 146 232 137 212 q 128 192 128 176 q 128 161 144 148 q 161 134 179 134 q 238 134 288 206 q 339 279 339 348 q 339 401 301 418 q 288 423 274 423 q 203 423 132 325 q 63 226 63 108 q 63 43 91 2 q 120 -40 171 -40 q 303 -40 515 319 q 405 352 405 449 q 405 578 536 655 q 619 703 697 703 q 758 703 807 683 q 876 656 876 601 q 876 589 870 578 q 865 567 859 567 q 846 580 828 580 q 743 580 595 327 q 603 326 612 326 q 646 326 680 346 q 714 366 714 396 z m 532 344 q 587 434 674 524 q 761 613 819 613 q 834 613 845 606 q 844 634 806 655 q 772 675 721 675 q 670 675 604 646 q 537 616 498 559 q 458 502 458 430 q 458 358 532 344 z"},"H":{"x_min":0,"x_max":951,"ha":951,"o":"m 283 -46 q 283 -18 398 171 q 316 171 289 164 q 244 153 222 119 q 214 108 208 107 q 203 106 203 112 q 203 117 207 121 q 245 172 282 191 q 319 210 399 210 q 411 210 423 210 q 484 303 594 486 q 635 563 635 611 q 635 688 541 689 q 535 689 530 689 q 402 689 297 625 q 192 561 131 466 q 70 371 70 295 q 70 202 157 202 q 226 202 275 263 q 324 324 324 379 q 324 410 308 430 q 306 432 306 435 q 306 442 314 442 q 318 442 320 439 q 340 413 340 377 q 340 316 290 252 q 240 189 185 182 q 168 179 152 179 q 88 179 53 220 q 19 257 19 320 q 19 346 25 373 q 55 508 198 609 q 342 710 521 710 q 590 710 640 680 q 689 651 689 598 q 689 545 652 486 l 471 208 q 503 207 586 198 q 668 190 710 190 q 751 190 765 191 l 803 254 q 900 417 1028 558 q 1155 700 1250 734 q 1253 735 1256 735 q 1263 735 1263 727 q 1263 724 1260 722 q 1196 686 1076 548 q 957 409 870 263 l 831 197 q 877 203 897 220 q 901 223 904 216 q 907 210 903 207 q 873 184 818 174 q 748 44 748 -9 q 748 -43 777 -43 q 797 -43 824 -30 q 850 -16 859 -6 q 868 3 870 3 q 872 3 871 -4 q 870 -10 867 -14 q 850 -30 816 -48 q 782 -66 761 -66 q 740 -66 730 -59 q 698 -38 698 14 q 698 66 751 166 q 714 163 682 163 q 671 163 447 170 q 376 58 333 -34 q 320 -61 302 -61 q 283 -61 283 -46 z"},"4":{"x_min":0,"x_max":568,"ha":568,"o":"m 406 204 q 476 180 514 180 q 552 180 575 197 q 604 221 604 255 q 604 266 601 278 q 598 291 608 291 q 618 291 623 281 q 642 247 642 220 q 642 152 520 152 q 468 152 390 176 q 352 105 342 22 q 341 10 341 -11 q 341 -32 353 -54 q 355 -60 355 -63 q 355 -81 339 -81 q 328 -81 323 -75 q 309 -45 309 -3 q 309 73 354 186 q 277 208 220 208 q 162 208 41 158 q 29 154 21 164 q 13 174 13 189 q 13 215 35 222 q 50 228 91 236 q 145 265 256 344 q 366 423 396 443 q 588 564 624 618 l 633 632 q 638 639 650 639 q 684 639 684 620 q 684 619 506 363 q 448 277 406 204 z m 231 251 q 284 251 368 219 q 412 315 533 488 l 556 522 q 493 483 354 383 q 214 283 162 246 q 203 251 231 251 z"},"~":{"x_min":0,"x_max":303,"ha":303,"o":"m 269 447 q 269 432 230 405 q 216 396 200 396 q 184 396 152 410 q 119 423 102 423 q 86 423 70 410 q 54 397 49 397 q 48 398 48 400 q 48 414 90 440 q 106 450 124 450 q 142 450 174 440 q 205 429 226 429 q 247 429 263 451 q 269 451 269 447 z"},"D":{"x_min":0,"x_max":921,"ha":921,"o":"m 187 25 q 99 -43 58 -43 q 36 -43 26 -22 q 15 0 15 25 q 15 73 56 169 q 96 265 133 265 q 152 265 166 190 q 179 115 193 81 q 261 153 390 321 q 552 534 605 554 q 623 561 642 561 q 661 561 674 553 q 686 545 686 533 q 686 516 657 513 q 622 494 549 421 q 476 350 432 288 q 325 139 212 45 q 268 -38 388 -38 q 401 -38 427 -36 q 705 -10 821 205 q 868 291 868 375 q 868 459 807 526 q 758 581 700 594 q 643 607 583 607 q 429 607 299 536 q 162 461 162 368 q 162 343 176 327 q 189 311 194 309 l 188 309 q 162 314 142 335 q 120 361 120 390 q 120 490 246 562 q 371 634 540 634 q 618 634 700 616 q 782 598 849 530 q 926 450 926 349 q 926 274 882 194 q 806 56 655 -8 q 534 -59 394 -59 q 254 -59 187 25 z m 51 29 q 51 -2 63 -25 q 106 -6 167 54 q 138 102 130 130 q 123 157 120 202 q 51 103 51 29 z m 194 309 q 195 309 196 310 q 196 308 196 308 q 195 308 194 309 z"},"^":{"x_min":0,"x_max":370,"ha":370,"o":"m 186 412 q 86 328 75 328 q 64 328 64 338 q 64 349 125 398 q 187 450 200 451 l 206 449 q 244 407 331 341 l 336 331 l 332 324 q 309 326 255 361 q 201 396 186 412 z"},"0":{"x_min":0,"x_max":576,"ha":576,"o":"m 628 615 q 626 601 602 610 q 578 620 564 620 q 549 620 547 620 q 578 610 604 585 q 660 532 660 453 q 660 374 616 292 q 572 210 498 145 q 325 -9 154 -9 q 134 -9 116 -6 q 33 5 33 111 q 33 217 111 344 q 159 424 246 499 q 334 574 423 614 q 419 618 419 622 q 419 634 452 634 q 462 634 476 633 q 505 643 553 643 q 628 643 628 615 z m 79 96 q 79 20 128 16 q 138 15 148 15 q 283 15 445 158 q 607 300 607 461 q 607 537 575 563 q 526 601 483 609 q 390 580 287 482 q 211 408 161 331 q 79 204 79 96 z"},"F":{"x_min":0,"x_max":632,"ha":632,"o":"m 528 251 q 625 248 630 248 q 636 248 637 248 q 661 250 661 241 q 661 227 622 227 l 537 229 q 511 227 506 224 q 464 172 393 74 q 322 -25 322 -44 q 322 -52 340 -40 q 351 -40 351 -43 q 351 -48 329 -58 l 301 -73 q 282 -89 258 -89 q 233 -89 235 -77 q 236 -53 306 44 q 376 142 451 230 q 379 217 341 217 q 337 218 337 224 q 337 229 349 239 q 361 249 374 249 q 388 249 418 250 l 469 250 q 503 296 620 462 q 668 531 668 576 q 668 646 564 646 q 483 646 374 601 q 264 556 172 478 q 107 424 69 361 q 31 298 31 249 q 31 170 125 170 q 133 170 142 171 q 203 176 258 240 q 312 305 312 349 q 312 353 311 358 q 337 353 337 327 q 337 284 281 226 q 205 147 105 147 q 50 147 19 176 q -12 205 -12 255 q -12 373 132 493 q 236 578 353 622 q 470 665 556 665 q 643 665 686 640 q 728 615 728 570 q 728 526 689 470 q 666 433 528 251 z"},"`":{"x_min":0,"x_max":221,"ha":221,"o":"m 169 312 q 173 309 173 304 q 173 300 167 300 q 161 300 108 332 q 55 364 46 370 q 37 377 37 390 q 37 402 47 402 q 59 402 169 312 z"},"k":{"x_min":0,"x_max":394,"ha":394,"o":"m 205 -12 q 126 -12 71 113 q 57 92 8 -5 q -28 9 -28 33 q -28 76 101 269 q 230 462 278 496 q 282 499 294 499 q 325 499 325 483 q 325 475 256 393 q 186 311 178 294 q 269 341 323 341 q 354 341 376 316 q 397 295 397 273 q 397 270 397 267 q 389 210 317 173 q 259 142 209 142 q 159 142 139 155 q 133 156 130 152 q 126 148 128 142 q 156 18 221 18 q 255 18 308 56 q 362 94 420 163 q 427 170 432 170 q 438 170 438 164 q 438 159 431 149 q 377 83 329 45 q 256 -12 205 -12 z m 349 294 q 349 302 340 310 q 331 318 321 318 q 267 318 192 273 q 116 228 99 171 q 108 171 147 168 q 192 168 265 205 q 349 247 349 294 z"},"u":{"x_min":0,"x_max":425,"ha":425,"o":"m 280 -6 q 275 -7 258 -7 q 242 -7 226 6 q 209 19 209 40 q 209 60 216 85 q 224 110 227 123 q 112 -11 47 -11 q 6 -11 2 40 q 2 44 2 47 q 2 90 54 163 q 25 137 -5 103 q -9 99 -15 99 q -19 99 -19 104 q -19 109 -10 121 l 128 283 q 154 313 181 313 q 208 313 208 295 q 208 288 202 282 q 162 245 102 159 q 41 73 41 32 q 41 14 53 14 q 95 14 175 97 q 203 125 279 220 q 355 316 379 316 q 415 316 415 288 q 415 278 373 230 q 316 161 286 118 q 256 74 256 47 q 256 20 271 20 q 278 20 287 24 q 356 54 452 164 q 458 171 464 171 q 470 171 470 164 q 470 158 463 150 q 420 100 362 50 q 304 -1 280 -6 z"},"]":{"x_min":0,"x_max":556,"ha":556,"o":"m 432 697 l 357 692 q 328 692 328 704 q 328 718 412 718 q 573 718 573 682 q 573 562 444 315 q 314 68 216 0 q 190 -17 106 -17 q 23 -17 23 4 q 23 8 24 17 q 28 18 38 18 l 110 14 q 154 14 170 24 q 186 34 226 81 q 307 177 408 364 q 509 550 509 641 q 509 697 432 697 z"},"U":{"x_min":0,"x_max":801,"ha":801,"o":"m 345 -19 q 302 -19 302 11 q 302 63 434 250 q 567 436 595 479 q 656 573 656 607 q 656 624 643 628 q 619 638 587 638 q 477 638 306 521 q 194 443 120 338 q 47 234 47 166 q 47 117 87 110 q 103 107 119 107 q 170 107 224 140 q 251 156 292 193 l 310 199 q 291 163 230 126 q 170 89 106 89 q 91 89 71 93 q 51 97 32 122 q 14 146 14 186 q 14 343 310 555 q 370 598 452 630 q 534 661 601 661 q 635 661 666 648 q 698 635 698 604 q 698 574 662 518 q 627 461 552 358 q 476 256 424 167 q 371 78 371 43 q 371 26 385 26 q 412 26 486 82 q 662 216 900 517 q 938 565 961 565 q 970 565 970 556 q 970 552 967 546 q 968 543 968 540 q 968 519 944 483 l 826 316 q 754 212 699 119 q 644 26 648 10 l 666 16 q 716 44 753 81 q 766 91 769 91 l 771 89 q 771 80 744 51 q 674 -10 644 -10 q 614 -10 614 9 q 614 28 668 127 q 721 226 839 400 q 819 376 776 329 q 530 77 481 38 q 408 -19 345 -19 z"},"o":{"x_min":0,"x_max":281,"ha":281,"o":"m 261 212 q 261 177 194 95 q 115 -2 59 -2 l 43 -2 q 17 -2 2 25 q -10 44 -10 67 q -10 127 78 236 q 165 344 219 344 q 270 344 270 290 q 270 276 265 254 q 266 251 284 251 q 302 251 339 270 q 338 253 260 221 q 261 217 261 212 z m 196 264 q 162 264 100 184 q 37 104 37 66 q 37 28 61 28 q 104 28 170 106 q 236 184 236 218 q 220 227 196 264 z"},"N":{"x_min":0,"x_max":925,"ha":925,"o":"m 402 12 q 378 -25 378 -36 q 378 -48 387 -52 q 387 -54 370 -64 q 354 -75 325 -75 q 296 -75 296 -60 q 296 -34 394 112 q 493 259 524 315 q 592 437 592 508 q 592 536 581 560 q 564 596 499 596 q 380 596 246 487 q 144 403 89 313 q 39 228 39 161 q 39 65 128 63 q 132 63 136 63 q 254 63 315 146 q 339 179 339 202 q 339 225 328 231 q 327 232 327 235 q 327 238 333 238 q 359 238 359 204 q 359 183 339 147 q 319 111 266 79 q 214 47 147 47 q 80 47 41 86 q 2 125 2 191 q 2 347 216 519 q 270 562 356 591 q 443 620 514 620 q 584 620 613 594 q 642 567 642 520 q 642 406 504 197 q 535 236 605 296 q 854 505 1033 571 q 1042 575 1053 575 q 1091 575 1101 532 q 1106 515 1053 461 q 928 333 841 181 q 754 29 754 -37 q 754 -53 760 -60 q 766 -66 779 -64 q 792 -61 834 -43 q 875 -25 888 -22 q 893 -24 893 -27 q 893 -42 840 -69 q 788 -96 762 -96 q 736 -96 729 -87 q 711 -62 711 -24 q 711 62 803 223 q 862 324 985 495 q 852 483 641 285 q 473 126 402 12 z"},"+":{"x_min":0,"x_max":406,"ha":406,"o":"m 235 437 q 246 437 246 410 q 246 382 231 260 l 248 260 q 273 260 316 260 q 360 260 396 262 q 397 260 397 259 q 397 245 334 233 q 297 228 223 216 q 210 167 190 117 q 170 67 158 67 q 148 67 142 78 q 137 89 140 98 l 171 212 q 19 212 19 235 q 19 245 28 252 q 36 259 48 259 q 60 259 92 260 l 185 260 q 220 364 234 437 q 235 437 235 437 z"},"G":{"x_min":0,"x_max":828,"ha":828,"o":"m 548 487 l 546 455 q 546 390 616 390 q 674 390 733 430 q 792 470 792 511 q 792 552 744 580 q 712 599 644 599 q 543 599 418 551 q 294 503 185 397 q 42 257 42 140 q 42 71 94 29 q 147 -13 232 -13 q 350 -13 506 76 q 636 149 701 231 l 730 274 q 712 274 581 264 q 450 253 431 248 q 412 244 400 244 q 367 244 367 260 q 367 285 443 302 q 519 318 700 318 q 881 318 939 304 q 948 302 948 299 q 948 288 879 283 q 793 276 791 276 q 689 142 527 -138 q 518 -154 510 -154 q 501 -154 501 -141 q 501 -106 557 -6 l 627 125 q 563 70 464 22 q 335 -39 220 -39 q 106 -39 46 10 q -15 60 -15 143 q -15 296 170 454 q 263 534 395 587 q 527 640 626 640 q 726 640 779 601 q 820 569 820 529 q 820 472 750 420 q 679 367 610 367 q 517 367 517 474 q 517 515 534 515 q 548 515 548 487 z"},"q":{"x_min":0,"x_max":332,"ha":332,"o":"m 123 48 q 59 4 21 4 q -28 4 -28 58 q -28 100 25 162 q 72 214 118 240 q 228 301 297 301 q 319 301 324 284 l 324 252 q 341 239 341 236 q 341 232 338 228 l 259 153 q 184 76 156 12 q 162 14 189 14 q 216 14 231 -10 q 246 -33 246 -56 q 246 -104 204 -169 q 158 -242 104 -242 q 52 -242 52 -165 q 52 -118 77 -59 z m 273 251 q 222 251 120 184 q 17 118 3 49 q 2 46 2 43 q 2 24 26 24 q 76 24 160 111 l 286 245 q 284 251 273 251 z m 146 -9 q 127 -39 105 -95 q 83 -151 83 -171 q 83 -191 91 -206 q 99 -222 113 -222 q 150 -222 178 -158 q 206 -94 206 -62 q 206 -30 192 -20 q 178 -10 146 -9 z"},"d":{"x_min":0,"x_max":467,"ha":467,"o":"m 329 303 q 441 485 485 485 q 492 485 504 480 q 517 476 517 467 q 517 462 512 454 q 432 356 393 307 q 275 158 263 93 q 260 79 260 65 q 260 20 297 20 q 371 20 490 157 q 500 167 507 168 q 514 170 514 165 q 514 160 508 153 q 392 14 302 -2 q 297 -3 288 -3 q 257 -3 242 18 q 226 40 226 65 q 226 93 237 127 l 156 46 q 101 -5 70 -5 q 38 -5 17 12 q -8 31 -8 65 q -8 138 94 240 q 196 341 281 341 q 309 341 320 326 q 324 321 329 303 z m 34 53 q 34 17 59 17 q 102 17 202 135 q 220 156 322 292 q 315 304 298 304 q 236 304 135 210 q 34 115 34 53 z"},"1":{"x_min":0,"x_max":349,"ha":349,"o":"m 301 79 q 312 79 312 68 q 312 54 297 54 q 230 54 154 30 q 117 17 66 -3 q 16 -23 12 -23 q 9 -23 4 -16 q -1 -8 -1 6 q -1 19 8 22 q 35 34 109 59 q 234 288 360 516 q 305 482 220 450 q 205 444 205 460 q 205 468 214 473 q 282 498 403 593 l 409 603 q 419 622 451 622 q 483 622 483 607 q 483 604 480 599 l 158 67 q 226 79 301 79 z"},"5":{"x_min":0,"x_max":662,"ha":662,"o":"m 748 567 q 718 554 675 554 q 632 554 548 567 q 464 580 404 580 q 345 580 308 552 q 300 546 298 561 q 296 571 298 588 q 300 604 307 609 q 330 626 352 628 q 374 631 416 631 q 459 631 552 605 q 645 579 678 579 q 710 579 740 594 q 769 608 769 632 q 769 647 781 647 q 793 647 793 621 q 793 586 748 567 z m 138 -8 q 66 -8 16 18 q -33 44 -33 94 q -33 143 32 205 q 42 215 50 215 q 58 215 58 208 q 58 200 48 190 q 12 156 12 117 q 12 78 58 50 q 104 22 166 22 q 285 22 410 108 q 534 195 557 307 q 559 321 559 327 q 559 377 497 403 q 454 418 407 418 q 338 418 278 389 l 173 338 q 171 337 167 337 q 158 337 158 350 q 158 364 171 370 l 289 519 q 298 530 326 530 q 354 530 354 524 q 354 522 352 520 l 236 394 q 364 445 419 445 q 633 445 633 339 q 633 322 627 303 q 586 174 446 86 q 296 -8 138 -8 z"}}}
